<svg id="FormatPainter" xmlns="http://www.w3.org/2000/svg" width="16" height="16" viewBox="0 0 16 16">
  <defs>
    <style>
      .cls-1 {
        fill: none;
      }

      .cls-2 {
        fill: #566ef0;
      }
    </style>
  </defs>
  <g id="边缘框">
    <rect id="边缘框-2" data-name="边缘框" class="cls-1" width="16" height="16"/>
  </g>
  <g id="组_22484" data-name="组 22484" transform="translate(1.362 2.387)">
    <path id="联合_514" data-name="联合 514" class="cls-2" d="M4.285,12.244H1.836a.612.612,0,0,1-.611-.613v-4.9H.611A.611.611,0,0,1,0,6.122V2.755a.611.611,0,0,1,.611-.611H4.284V.613A.611.611,0,0,1,4.893,0H8.566a.613.613,0,0,1,.613.613v1.53h3.673a.611.611,0,0,1,.611.611V6.122a.611.611,0,0,1-.611.611h-.613v4.9a.612.612,0,0,1-.611.613Zm6.733-1.224V6.733H2.449V11.02H3.673V8.571a.611.611,0,1,1,1.223,0V11.02Zm1.225-5.511V3.368H8.57a.613.613,0,0,1-.611-.613V1.225H5.509v1.53a.613.613,0,0,1-.613.613H1.225v2.14Z" transform="translate(0 0)"/>
  </g>
</svg>
