<svg id="PlusCircleF" xmlns="http://www.w3.org/2000/svg" width="18" height="18" viewBox="0 0 18 18">
  <g id="边缘框">
    <rect id="边缘框-2" data-name="边缘框" width="18" height="18" fill="none"/>
  </g>
  <path id="路径_4301" data-name="路径 4301" d="M704.959,696.979a8.074,8.074,0,1,0,8.075,8.074A8.084,8.084,0,0,0,704.959,696.979Zm2.936,8.809h-2.2v2.2a.734.734,0,1,1-1.468,0v-2.2h-2.2a.734.734,0,1,1,0-1.468h2.2v-2.2a.734.734,0,1,1,1.468,0v2.2h2.2a.734.734,0,1,1,0,1.468Z" transform="translate(-696.07 -696.164)" fill="#566ef0"/>
</svg>
