<svg xmlns="http://www.w3.org/2000/svg" width="20" height="20" viewBox="0 0 20 20">
  <defs>
    <style>
      .cls-1 {
        fill: none;
      }

      .cls-2 {
        fill: #566ef0;
        stroke: rgba(0,0,0,0);
        stroke-miterlimit: 10;
      }
    </style>
  </defs>
  <g id="Delete" transform="translate(-214 -574)">
    <rect id="边缘框" class="cls-1" width="20" height="20" transform="translate(214 574)"/>
    <path id="联合_342" data-name="联合 342" class="cls-2" d="M3.2,15.534a.794.794,0,0,1-.8-.783V4.574H.8a.783.783,0,1,1,0-1.566H16.887a.783.783,0,1,1,0,1.566H15.26V14.751a.793.793,0,0,1-.8.783ZM4,13.968h9.649V4.574H4Zm6.006-3.148V7.689a.8.8,0,0,1,1.608,0V10.82a.8.8,0,0,1-1.608,0Zm-3.97,0V7.689a.8.8,0,0,1,1.608,0V10.82a.8.8,0,0,1-1.608,0ZM4.8,1.566a.793.793,0,0,1-.8-.784A.793.793,0,0,1,4.8,0h8.041a.8.8,0,0,1,.8.783.8.8,0,0,1-.8.784Z" transform="translate(215 576.106)"/>
  </g>
</svg>
